<svg xmlns="http://www.w3.org/2000/svg" viewBox="0 0 48 60" x="0px" y="0px"><title>mortarboard, graduation, education</title><g><path d="M45.32,18.05l-21-7a1,1,0,0,0-.64,0l-21,7a1,1,0,0,0,0,1.9L6,21.05V32a1,1,0,0,0,2,0V21.72L23.68,27a1,1,0,0,0,.64,0l21-7a1,1,0,0,0,0-1.9Z"/><path d="M24,29a3.09,3.09,0,0,1-.95-.15L10,24.5V32a1,1,0,0,0,.71,1l13,4a1.07,1.07,0,0,0,.58,0l13-4A1,1,0,0,0,38,32V24.49L25,28.85A3.09,3.09,0,0,1,24,29Z"/></g>
<!-- <text x="0" y="63" fill="#000000" font-size="5px" font-weight="bold" font-family="'Helvetica Neue', Helvetica, Arial-Unicode, Arial, Sans-serif">Created by Deemak Daksina</text> -->
<!-- <text x="0" y="68" fill="#000000" font-size="5px" font-weight="bold" font-family="'Helvetica Neue', Helvetica, Arial-Unicode, Arial, Sans-serif">from the Noun Project</text> -->
</svg>